<svg width="434" height="318" viewBox="0 0 434 318" fill="none" xmlns="http://www.w3.org/2000/svg">
<g filter="url(#filter0_d_275_26115)">
<path d="M379.404 2.10476L34.3834 30.408C11.0693 32.3287 -4.79564 54.7849 1.3172 77.2127L40.1551 219.576C44.5904 235.79 59.375 247.06 76.2919 247.06L108.335 247.06L159.825 306.124L153.086 247.06L339.229 247.06C356.374 247.06 371.357 235.479 375.537 218.955L418.838 48.2881C425.122 23.544 405.049 0.0145043 379.46 2.13301L379.404 2.10476Z" fill="white"/>
</g>
<path d="M379.404 2.10476L34.3834 30.408C11.0693 32.3287 -4.79564 54.7849 1.3172 77.2127L40.1551 219.576C44.5904 235.79 59.375 247.06 76.2919 247.06L108.335 247.06L159.825 306.124L153.086 247.06L339.229 247.06C356.374 247.06 371.357 235.479 375.537 218.955L418.838 48.2881C425.122 23.544 405.049 0.0145043 379.46 2.13301L379.404 2.10476Z" fill="url(#paint0_linear_275_26115)"/>
<path style="mix-blend-mode:screen" d="M379.404 2.10476L34.3834 30.408C11.0693 32.3287 -4.79564 54.7849 1.3172 77.2127L40.1551 219.576C44.5904 235.79 59.375 247.06 76.2919 247.06L108.335 247.06L159.825 306.124L153.086 247.06L339.229 247.06C356.374 247.06 371.357 235.479 375.537 218.955L418.838 48.2881C425.122 23.544 405.049 0.0145043 379.46 2.13301L379.404 2.10476ZM416.194 47.6384L372.893 218.305C368.997 233.671 355.123 244.405 339.172 244.405L150.072 244.405L156.185 297.904L109.557 244.405L76.2919 244.405C60.626 244.405 46.8365 233.925 42.7424 218.898L3.9045 76.5348C1.20348 66.592 3.05154 56.0842 8.99379 47.6667C14.936 39.2492 24.2617 33.9388 34.5824 33.0914L379.603 4.7882C380.598 4.70346 381.593 4.67521 382.559 4.67521C392.766 4.67521 402.263 9.0252 408.973 16.8778C416.308 25.493 418.952 36.707 416.166 47.6667L416.194 47.6384Z" fill="url(#paint1_linear_275_26115)"/>
<defs>
<filter id="filter0_d_275_26115" x="0" y="0.953798" width="433.601" height="316.678" filterUnits="userSpaceOnUse" color-interpolation-filters="sRGB">
<feFlood flood-opacity="0" result="BackgroundImageFix"/>
<feColorMatrix in="SourceAlpha" type="matrix" values="0 0 0 0 0 0 0 0 0 0 0 0 0 0 0 0 0 0 127 0" result="hardAlpha"/>
<feOffset dx="7.32341" dy="5.23101"/>
<feGaussianBlur stdDeviation="3.13861"/>
<feColorMatrix type="matrix" values="0 0 0 0 0 0 0 0 0 0.29 0 0 0 0 0.5 0 0 0 0.2 0"/>
<feBlend mode="normal" in2="BackgroundImageFix" result="effect1_dropShadow_275_26115"/>
<feBlend mode="normal" in="SourceGraphic" in2="effect1_dropShadow_275_26115" result="shape"/>
</filter>
<linearGradient id="paint0_linear_275_26115" x1="151.426" y1="128.101" x2="141.109" y2="1.9921" gradientUnits="userSpaceOnUse">
<stop stop-color="white"/>
<stop offset="1" stop-color="#D7EBFF"/>
</linearGradient>
<linearGradient id="paint1_linear_275_26115" x1="0.00933889" y1="154.044" x2="419.947" y2="154.044" gradientUnits="userSpaceOnUse">
<stop stop-color="white"/>
<stop offset="1" stop-color="#E8E9EA"/>
</linearGradient>
</defs>
</svg>
