<svg width="498" height="362" viewBox="0 0 498 362" fill="none" xmlns="http://www.w3.org/2000/svg">
<g filter="url(#filter0_d_275_26294)">
<path d="M46.7826 2.11994L444.377 34.5223C471.244 36.7212 489.526 62.4296 482.482 88.1057L437.726 251.087C432.615 269.649 415.577 282.552 396.083 282.552H359.157L299.821 350.17L307.586 282.552H93.0786C73.3217 282.552 56.0549 269.293 51.2385 250.376L1.33853 54.992C-5.90237 26.6642 17.2292 -0.273044 46.7171 2.15228L46.7826 2.11994Z" fill="white"/>
</g>
<path d="M46.7826 2.11994L444.377 34.5223C471.244 36.7212 489.526 62.4296 482.482 88.1057L437.726 251.087C432.615 269.649 415.577 282.552 396.083 282.552H359.157L299.821 350.17L307.586 282.552H93.0786C73.3217 282.552 56.0549 269.293 51.2385 250.376L1.33853 54.992C-5.90237 26.6642 17.2292 -0.273044 46.7171 2.15228L46.7826 2.11994Z" fill="url(#paint0_linear_275_26294)"/>
<path style="mix-blend-mode:screen" d="M46.7826 2.11994L444.377 34.5223C471.244 36.7212 489.526 62.4296 482.482 88.1057L437.726 251.087C432.615 269.649 415.577 282.552 396.083 282.552H359.157L299.821 350.17L307.586 282.552H93.0786C73.3217 282.552 56.0549 269.293 51.2385 250.376L1.33853 54.992C-5.90237 26.6642 17.2292 -0.273044 46.7171 2.15228L46.7826 2.11994ZM4.38565 54.2482L54.2856 249.632C58.7743 267.224 74.7633 279.512 93.1441 279.512H311.059L304.015 340.76L357.748 279.512H396.083C414.136 279.512 430.026 267.515 434.745 250.311L479.501 87.3296C482.613 75.9468 480.483 63.9172 473.636 54.2805C466.788 44.6439 456.041 38.5645 444.148 37.5943L46.5533 5.19202C45.4065 5.095 44.2597 5.06267 43.1458 5.06267C31.3834 5.06267 20.4401 10.0427 12.7077 19.0325C4.25455 28.8955 1.20749 41.7335 4.4184 54.2805L4.38565 54.2482Z" fill="url(#paint1_linear_275_26294)"/>
<defs>
<filter id="filter0_d_275_26294" x="0" y="0.953798" width="497.601" height="360.724" filterUnits="userSpaceOnUse" color-interpolation-filters="sRGB">
<feFlood flood-opacity="0" result="BackgroundImageFix"/>
<feColorMatrix in="SourceAlpha" type="matrix" values="0 0 0 0 0 0 0 0 0 0 0 0 0 0 0 0 0 0 127 0" result="hardAlpha"/>
<feOffset dx="7.32341" dy="5.23101"/>
<feGaussianBlur stdDeviation="3.13861"/>
<feColorMatrix type="matrix" values="0 0 0 0 0 0 0 0 0 0 0 0 0 0 0 0 0 0 0.2 0"/>
<feBlend mode="normal" in2="BackgroundImageFix" result="effect1_dropShadow_275_26294"/>
<feBlend mode="normal" in="SourceGraphic" in2="effect1_dropShadow_275_26294" result="shape"/>
</filter>
<linearGradient id="paint0_linear_275_26294" x1="483.989" y1="176.064" x2="0.06077" y2="176.064" gradientUnits="userSpaceOnUse">
<stop stop-color="#C1E0FF"/>
<stop offset="1" stop-color="white"/>
</linearGradient>
<linearGradient id="paint1_linear_275_26294" x1="483.989" y1="176.064" x2="0.06077" y2="176.064" gradientUnits="userSpaceOnUse">
<stop stop-color="white"/>
<stop offset="1" stop-color="#E8E9EA"/>
</linearGradient>
</defs>
</svg>
