<svg width="61" height="67" viewBox="0 0 61 67" fill="none" xmlns="http://www.w3.org/2000/svg">
<path d="M58.8984 45.938V20.8269C58.8973 19.726 58.6067 18.6448 58.0558 17.6917C57.5048 16.7385 56.7129 15.9471 55.7595 15.3966L33.7873 2.84106C32.833 2.29007 31.7504 2 30.6484 2C29.5465 2 28.4639 2.29007 27.5095 2.84106L5.53733 15.3966C4.58393 15.9471 3.79204 16.7385 3.24111 17.6917C2.69017 18.6448 2.39957 19.726 2.39844 20.8269V45.938C2.39957 47.0389 2.69017 48.1201 3.24111 49.0732C3.79204 50.0264 4.58393 50.8178 5.53733 51.3683L27.5095 63.9238C28.4639 64.4748 29.5465 64.7649 30.6484 64.7649C31.7504 64.7649 32.833 64.4748 33.7873 63.9238L55.7595 51.3683C56.7129 50.8178 57.5048 50.0264 58.0558 49.0732C58.6067 48.1201 58.8973 47.0389 58.8984 45.938Z" stroke="white" stroke-width="3" stroke-linecap="round" stroke-linejoin="round"/>
<path d="M3.24609 17.5625L30.6486 33.4139L58.0511 17.5625" stroke="white" stroke-width="3" stroke-linecap="round" stroke-linejoin="round"/>
<path d="M30.6484 65.0223V33.3823" stroke="white" stroke-width="3" stroke-linecap="round" stroke-linejoin="round"/>
</svg>
