<svg width="33" height="30" viewBox="0 0 33 30" fill="none" xmlns="http://www.w3.org/2000/svg">
<path fill-rule="evenodd" clip-rule="evenodd" d="M22.8016 25.5137C21.5637 25.5137 20.5586 26.5183 20.5586 27.7566C20.5586 28.9949 21.5633 29.9992 22.8016 29.9992C24.0399 29.9992 25.0437 28.9945 25.0437 27.7566C25.0441 26.5183 24.039 25.5137 22.8016 25.5137Z" fill="white"/>
<path fill-rule="evenodd" clip-rule="evenodd" d="M14.2117 25.5137C12.9739 25.5137 11.9688 26.5183 11.9688 27.7566C11.9688 28.9945 12.9734 29.9992 14.2117 29.9992C15.45 29.9992 16.4543 28.9945 16.4543 27.7566C16.4543 26.5183 15.45 25.5137 14.2117 25.5137Z" fill="white"/>
<path fill-rule="evenodd" clip-rule="evenodd" d="M31.4898 5.6485H8.0614L7.43119 0.968934C7.34012 0.291063 6.96225 0 6.29162 0H1.67205C1.05248 0 0.550781 0.502977 0.550781 1.12212C0.550781 1.74127 1.05206 2.2434 1.67205 2.2434H5.32907L7.94906 18.1876C8.38565 20.9319 9.01416 23.5897 12.5805 23.5897H24.915C28.5264 23.5897 28.9235 21.0123 29.5716 18.4187L32.323 7.41275C32.5358 6.56211 32.5881 5.6485 31.4898 5.6485ZM29.252 10.7272H13.9882C13.3712 10.7272 12.8669 11.2315 12.8669 11.8485C12.8669 12.4659 13.3712 12.9702 13.9882 12.9702H28.6916L28.0516 15.5306H16.7303C16.1137 15.5306 15.6095 16.0349 15.6095 16.6519V16.6527C15.6095 17.2693 16.1137 17.7736 16.7303 17.7736H27.4907L27.372 18.2497C27.0175 19.6685 26.9367 21.3472 24.9154 21.3472H12.581C10.4456 21.3472 10.392 19.428 10.138 17.9021L8.46948 7.89104H29.9618L29.2524 10.7272H29.252Z" fill="white"/>
</svg>
