<svg width="31" height="30" viewBox="0 0 31 30" fill="none" xmlns="http://www.w3.org/2000/svg">
<path d="M28.0008 21.1501V24.9001C28.0022 25.2482 27.9309 25.5928 27.7914 25.9118C27.6519 26.2308 27.4474 26.5171 27.1909 26.7525C26.9343 26.9878 26.6315 27.167 26.3017 27.2785C25.9719 27.39 25.6225 27.4315 25.2758 27.4001C21.4293 26.9822 17.7345 25.6678 14.4883 23.5626C11.4681 21.6435 8.90744 19.0828 6.98827 16.0626C4.87574 12.8016 3.56107 9.08886 3.15077 5.22512C3.11953 4.87945 3.16061 4.53107 3.2714 4.20215C3.38218 3.87323 3.56023 3.57098 3.79423 3.31465C4.02822 3.05831 4.31303 2.85351 4.63051 2.71327C4.94799 2.57304 5.2912 2.50045 5.63827 2.50012H9.38827C9.9949 2.49415 10.583 2.70897 11.043 3.10454C11.5029 3.5001 11.8034 4.04943 11.8883 4.65012C12.0465 5.8502 12.3401 7.02853 12.7633 8.16262C12.9315 8.61003 12.9678 9.09626 12.8682 9.56372C12.7685 10.0312 12.5368 10.4603 12.2008 10.8001L10.6133 12.3876C12.3927 15.5171 14.9838 18.1082 18.1133 19.8876L19.7008 18.3001C20.0406 17.964 20.4697 17.7324 20.9372 17.6327C21.4046 17.533 21.8909 17.5694 22.3383 17.7376C23.4724 18.1608 24.6507 18.4543 25.8508 18.6126C26.458 18.6983 27.0125 19.0041 27.4089 19.472C27.8054 19.9399 28.016 20.5371 28.0008 21.1501Z" stroke="white" stroke-width="2" stroke-linecap="round" stroke-linejoin="round"/>
</svg>
