<svg width="192" height="59" viewBox="0 0 192 59" fill="none" xmlns="http://www.w3.org/2000/svg">
<path d="M56.2578 0.852051L49.7048 25.0718H49.6198C49.5726 25.4117 49.4971 25.7422 49.4121 26.0821L44.1904 48.4795L28.6955 48.4606L33.5583 30.0291H21.9725C21.6798 30.0291 21.387 30.0668 21.1132 30.1329C19.6119 30.4917 18.3749 31.757 17.9406 33.4755L14.6263 48.4795H0L2.03012 39.3298C2.07733 39.1315 2.14342 38.9427 2.22841 38.7727C2.19064 38.8294 2.15287 38.886 2.1151 38.9427L8.06381 16.2998L12.0863 0.974802L26.9203 0.852051L22.7279 16.2904H37.2408L41.4427 0.899263L56.2578 0.852051Z" fill="#3165FF"/>
<path opacity="0.8" d="M2.03012 39.3295L0 48.4792H14.5979L17.9122 33.4752C18.356 31.7567 19.593 30.4914 21.0849 30.1326C21.0849 30.1326 8.11102 29.3772 2.32283 38.6025C2.18119 38.8196 2.08677 39.0746 2.03012 39.339V39.3295Z" fill="url(#paint0_linear_275_27848)"/>
<path opacity="0.8" d="M35.125 16.2902C35.4177 16.2902 35.871 16.3091 36.4281 16.2902C36.6075 16.2902 36.7963 16.2902 36.9946 16.2713C37.0796 16.2713 37.1551 16.2713 37.2401 16.2619C41.3664 16.073 49.5152 14.94 53.8398 9.26507C53.9815 9.07622 54.0853 8.86849 54.142 8.64187L54.7369 6.46068L56.2665 0.833008L41.4608 0.870777V0.908547L41.1776 1.86223L37.2495 16.2713V16.2997L37.004 16.2808L35.125 16.2997V16.2902Z" fill="url(#paint1_linear_275_27848)"/>
<path d="M53.8967 48.9042C53.1036 48.6776 52.386 48.3187 51.7533 47.8466C51.1207 47.3745 50.6014 46.7513 50.2142 45.9865C49.8271 45.2216 49.6571 44.3057 49.7138 43.2387C49.7421 42.6628 49.8271 42.134 49.9687 41.643L53.8779 25.9591H63.6885L60.2232 39.83C60.1854 39.9433 60.1759 40.1227 60.1759 40.3494C60.1759 40.576 60.242 40.812 60.3742 41.0387C60.5064 41.2653 60.7142 41.473 60.988 41.643C61.2713 41.8129 61.6773 41.8979 62.2249 41.8979C62.6026 41.8979 63.0181 41.8507 63.4808 41.7657C63.9435 41.6807 64.51 41.5674 65.1804 41.4164L69.0329 25.9497H78.8436L73.2253 48.6303H64.2834L64.6705 47.0346C63.9057 47.3179 63.1881 47.5917 62.5082 47.8561C61.8284 48.111 61.1674 48.3471 60.5064 48.5454C59.8455 48.7437 59.1656 48.9136 58.4669 49.0458C57.7681 49.178 57.0127 49.2441 56.2101 49.2441C55.4642 49.2441 54.6899 49.1308 53.8967 48.8947V48.9042Z" fill="#3165FF"/>
<path d="M85.8868 25.8933C87.0388 25.8178 88.2568 25.7611 89.5221 25.7233C90.7874 25.6761 92.0905 25.6478 93.4124 25.6195C94.7438 25.5911 96.0468 25.5723 97.3499 25.5723C100.579 25.5723 103.034 26.2899 104.734 27.7157C106.433 29.1415 107.198 31.3416 107.038 34.3065C107.009 34.8258 106.962 35.364 106.887 35.9306C106.811 36.4971 106.688 37.0731 106.509 37.6774C105.961 39.9247 105.112 41.7943 103.96 43.2956C102.808 44.797 101.467 45.9773 99.9277 46.8649C98.3791 47.743 96.6889 48.3662 94.8571 48.725C93.0253 49.0838 91.1368 49.2632 89.2105 49.2632H86.831L84.631 58.1674H74.8203L82.7519 26.1483C83.6773 26.0633 84.7159 25.9783 85.8774 25.9122L85.8868 25.8933ZM92.2793 42.5308C92.9308 42.3986 93.5352 42.1531 94.0923 41.7754C94.6494 41.3977 95.1309 40.8973 95.5558 40.2646C95.9807 39.632 96.3207 38.7916 96.5756 37.7624C96.7928 36.9598 96.9155 36.2233 96.9533 35.5623C97.0194 34.2687 96.7267 33.3622 96.0563 32.8618C95.3953 32.3613 94.3566 32.1064 92.9403 32.1064C92.6853 32.1064 92.3832 32.1064 92.0527 32.1253C91.7222 32.1442 91.3917 32.1631 91.0801 32.1914L88.4457 42.7385H90.2209C90.9385 42.7385 91.6278 42.6724 92.2793 42.5403V42.5308Z" fill="#3165FF"/>
<path d="M111.448 48.9042C110.654 48.6776 109.937 48.3187 109.304 47.8466C108.671 47.3745 108.152 46.7513 107.765 45.9865C107.378 45.2216 107.208 44.3057 107.265 43.2387C107.293 42.6628 107.378 42.134 107.519 41.643L111.429 25.9591H121.239L117.774 39.83C117.736 39.9433 117.727 40.1227 117.727 40.3494C117.727 40.576 117.793 40.812 117.925 41.0387C118.057 41.2653 118.265 41.473 118.539 41.643C118.822 41.8129 119.228 41.8979 119.776 41.8979C120.153 41.8979 120.569 41.8507 121.032 41.7657C121.494 41.6807 122.061 41.5674 122.731 41.4164L126.584 25.9497H136.394L130.776 48.6303H121.834L122.221 47.0346C121.456 47.3179 120.739 47.5917 120.059 47.8561C119.379 48.111 118.718 48.3471 118.057 48.5454C117.396 48.7437 116.716 48.9136 116.018 49.0458C115.319 49.178 114.564 49.2441 113.761 49.2441C113.015 49.2441 112.241 49.1308 111.448 48.8947V48.9042Z" fill="#3165FF"/>
<path d="M149.833 25.9591L149.398 27.6398C150.343 27.2621 151.202 26.9505 151.976 26.6861C152.75 26.4218 153.487 26.214 154.167 26.0346C154.847 25.8552 155.517 25.7419 156.15 25.6664C156.792 25.5908 157.453 25.5625 158.142 25.5625C158.888 25.5625 159.643 25.6664 160.389 25.8835C161.145 26.1007 161.806 26.4406 162.391 26.9033C162.976 27.366 163.43 27.9514 163.77 28.6785C164.11 29.3961 164.242 30.2743 164.195 31.3129C164.166 31.9172 164.072 32.5121 163.93 33.0881L160.115 48.6397H150.352L153.666 35.1182C153.808 34.5422 153.723 34.0418 153.402 33.6263C153.081 33.2108 152.524 33.0031 151.749 33.0031C151.202 33.0031 150.654 33.0314 150.106 33.0881C149.559 33.1447 149.124 33.2014 148.803 33.2581L144.998 48.6397H135.188L140.806 25.9591H149.833Z" fill="#3165FF"/>
<path d="M181.388 49.0552C179.216 49.2441 176.865 49.3385 174.334 49.3385C173.239 49.3385 172.077 49.3007 170.859 49.2346C169.641 49.1591 168.527 48.9325 167.526 48.5453C166.525 48.1582 165.704 47.5728 165.071 46.7985C164.438 46.0242 164.155 44.91 164.231 43.4748C164.25 43.1537 164.287 42.8421 164.344 42.5211C164.401 42.2001 164.476 41.8601 164.552 41.4824C164.996 39.7261 165.723 38.357 166.761 37.375C167.79 36.393 169.009 35.6565 170.397 35.1749C171.794 34.6839 173.305 34.3817 174.938 34.2684C176.572 34.1551 178.196 34.0985 179.811 34.0985H181.491C181.558 33.9285 181.614 33.7586 181.652 33.598C181.69 33.4375 181.709 33.277 181.718 33.0976C181.727 32.8993 181.69 32.701 181.595 32.5122C181.501 32.3233 181.321 32.1628 181.038 32.0117C180.755 31.8701 180.358 31.7473 179.848 31.6435C179.339 31.5396 178.659 31.4924 177.828 31.4924C177.138 31.4924 176.383 31.5207 175.552 31.5774C174.731 31.634 173.909 31.7096 173.097 31.7945C172.285 31.8795 171.52 31.9739 170.793 32.0778C170.066 32.1817 169.471 32.2761 169.009 32.3611L170.444 26.4879C171.926 26.2613 173.664 26.0158 175.665 25.7514C177.667 25.4965 179.65 25.3643 181.605 25.3643C183.106 25.3643 184.494 25.4209 185.788 25.5342C187.081 25.6475 188.196 25.9119 189.14 26.3085C190.084 26.7145 190.811 27.3 191.311 28.0837C191.821 28.8579 192.039 29.8966 191.963 31.1902C191.925 31.9078 191.793 32.701 191.576 33.5697L187.884 48.517C185.712 48.687 183.54 48.8664 181.378 49.0552H181.388ZM178.196 43.6542C178.64 43.6353 179.008 43.607 179.301 43.5503L180.292 39.5751H177.696C177.346 39.5751 176.997 39.6128 176.629 39.6789C176.26 39.7545 175.92 39.8772 175.59 40.0661C175.259 40.2549 174.995 40.5004 174.768 40.8215C174.551 41.1425 174.428 41.5296 174.4 41.9923C174.372 42.5966 174.598 43.031 175.089 43.2859C175.58 43.5409 176.185 43.6731 176.902 43.6731C177.308 43.6731 177.733 43.6731 178.177 43.6542H178.196Z" fill="#3165FF"/>
<defs>
<linearGradient id="paint0_linear_275_27848" x1="11.3403" y1="35.1749" x2="8.8192" y2="48.2337" gradientUnits="userSpaceOnUse">
<stop stop-color="#003CD3"/>
<stop offset="0.04" stop-color="#023ED5" stop-opacity="0.8836"/>
<stop offset="0.23" stop-color="#104AE2" stop-opacity="0.4356"/>
<stop offset="0.42" stop-color="#1C53EC" stop-opacity="0.1764"/>
<stop offset="0.59" stop-color="#255BF4" stop-opacity="0.0576"/>
<stop offset="0.75" stop-color="#2B60FA" stop-opacity="0.0121"/>
<stop offset="0.89" stop-color="#2F63FD" stop-opacity="0.01"/>
<stop offset="1" stop-color="#3165FF" stop-opacity="0"/>
</linearGradient>
<linearGradient id="paint1_linear_275_27848" x1="45.4833" y1="16.158" x2="46.3237" y2="-14.6148" gradientUnits="userSpaceOnUse">
<stop stop-color="#003CD3"/>
<stop offset="0.04" stop-color="#023ED5" stop-opacity="0.8836"/>
<stop offset="0.23" stop-color="#104AE2" stop-opacity="0.4356"/>
<stop offset="0.42" stop-color="#1C53EC" stop-opacity="0.1764"/>
<stop offset="0.59" stop-color="#255BF4" stop-opacity="0.0576"/>
<stop offset="0.75" stop-color="#2B60FA" stop-opacity="0.0121"/>
<stop offset="0.89" stop-color="#2F63FD" stop-opacity="0.01"/>
<stop offset="1" stop-color="#3165FF" stop-opacity="0"/>
</linearGradient>
</defs>
</svg>
