<svg width="14" height="16" viewBox="0 0 14 16" fill="none" xmlns="http://www.w3.org/2000/svg">
<path d="M12.5117 6.49023C12.5117 10.967 6.75586 14.8043 6.75586 14.8043C6.75586 14.8043 1 10.967 1 6.49023C1 4.96369 1.60642 3.49966 2.68585 2.42023C3.76529 1.34079 5.22931 0.734375 6.75586 0.734375C8.28241 0.734375 9.74643 1.34079 10.8259 2.42023C11.9053 3.49966 12.5117 4.96369 12.5117 6.49023Z" stroke="#2E62FC" stroke-width="1.27908" stroke-linecap="round" stroke-linejoin="round"/>
<path d="M6.75553 8.40902C7.81516 8.40902 8.67415 7.55002 8.67415 6.4904C8.67415 5.43077 7.81516 4.57178 6.75553 4.57178C5.69591 4.57178 4.83691 5.43077 4.83691 6.4904C4.83691 7.55002 5.69591 8.40902 6.75553 8.40902Z" stroke="#2E62FC" stroke-width="1.27908" stroke-linecap="round" stroke-linejoin="round"/>
</svg>
