<svg width="14" height="16" viewBox="0 0 14 16" fill="none" xmlns="http://www.w3.org/2000/svg">
<path d="M13 6.7207C13 11.1975 7.24414 15.0347 7.24414 15.0347C7.24414 15.0347 1.48828 11.1975 1.48828 6.7207C1.48828 5.19415 2.0947 3.73013 3.17413 2.6507C4.25357 1.57126 5.71759 0.964844 7.24414 0.964844C8.77069 0.964844 10.2347 1.57126 11.3141 2.6507C12.3936 3.73013 13 5.19415 13 6.7207Z" stroke="white" stroke-width="1.27908" stroke-linecap="round" stroke-linejoin="round"/>
<path d="M7.24479 8.63949C8.30442 8.63949 9.16341 7.78049 9.16341 6.72087C9.16341 5.66124 8.30442 4.80225 7.24479 4.80225C6.18517 4.80225 5.32617 5.66124 5.32617 6.72087C5.32617 7.78049 6.18517 8.63949 7.24479 8.63949Z" stroke="white" stroke-width="1.27908" stroke-linecap="round" stroke-linejoin="round"/>
</svg>
