<svg width="394" height="64" viewBox="0 0 394 64" fill="none" xmlns="http://www.w3.org/2000/svg">
<path d="M0.966774 0.489584H17.0244V25.5851H41.8567V0.489584H57.9144V62H41.8567V38.3961H17.0244V62H0.966774V0.489584ZM85.0402 36.6412C85.0402 40.5021 86.1809 43.6024 88.4623 45.9424C90.7437 48.2823 93.6393 49.4522 97.1492 49.4522C100.601 49.4522 103.379 48.3115 105.485 46.0301C107.65 43.6902 108.732 40.5606 108.732 36.6412V0.489584H124.789V36.6412C124.789 41.9645 123.649 46.6443 121.367 50.6807C119.144 54.6585 115.927 57.7297 111.715 59.8941C107.562 62.0585 102.677 63.1407 97.0615 63.1407C91.4457 63.1407 86.5026 62.0585 82.2323 59.8941C78.0204 57.7297 74.7445 54.6585 72.4046 50.6807C70.1232 46.6443 68.9825 41.9645 68.9825 36.6412V0.489584H85.0402V36.6412ZM162.96 0.489584C170.798 0.489584 176.882 2.39076 181.211 6.19312C185.54 9.93698 187.704 15.231 187.704 22.0753C187.704 29.329 185.54 34.974 181.211 39.0104C176.882 42.9882 170.798 44.9771 162.96 44.9771H151.991V62H135.934V0.489584H162.96ZM162.17 32.1661C165.446 32.1661 167.961 31.3472 169.716 29.7092C171.53 28.0713 172.436 25.7021 172.436 22.6017C172.436 19.6184 171.53 17.3369 169.716 15.7575C167.961 14.1196 165.446 13.3006 162.17 13.3006H151.991V32.1661H162.17ZM210.752 36.6412C210.752 40.5021 211.893 43.6024 214.175 45.9424C216.456 48.2823 219.352 49.4522 222.862 49.4522C226.313 49.4522 229.092 48.3115 231.197 46.0301C233.362 43.6902 234.444 40.5606 234.444 36.6412V0.489584H250.502V36.6412C250.502 41.9645 249.361 46.6443 247.08 50.6807C244.857 54.6585 241.639 57.7297 237.427 59.8941C233.274 62.0585 228.39 63.1407 222.774 63.1407C217.158 63.1407 212.215 62.0585 207.945 59.8941C203.733 57.7297 200.457 54.6585 198.117 50.6807C195.836 46.6443 194.695 41.9645 194.695 36.6412V0.489584H210.752V36.6412ZM303.677 0.489584H318.594V62H304.554L276.651 25.2341V62H261.646V0.489584H275.773L303.764 37.5187L303.677 0.489584ZM375.99 62L371.778 51.1194H345.191L340.891 62H324.395L350.807 0.489584H367.303L393.1 62H375.99ZM350.017 38.8349H367.04L358.616 16.8982L350.017 38.8349Z" fill="#96EBFF"/>
</svg>
