<svg width="192" height="58" viewBox="0 0 192 58" fill="none" xmlns="http://www.w3.org/2000/svg">
<path d="M56.2776 0.019043L49.7246 24.2389H49.6396C49.5924 24.5788 49.5168 24.9093 49.4318 25.2492L44.2102 47.6467L28.7151 47.6278L33.578 29.1962H21.9921C21.6994 29.1962 21.4067 29.234 21.1328 29.3001C19.6315 29.6589 18.3945 30.9242 17.9602 32.6427L14.6459 47.6467H0.0195312L2.04966 38.497C2.09687 38.2987 2.16297 38.1099 2.24795 37.9399C2.21018 37.9965 2.17241 38.0532 2.13464 38.1099L8.08338 15.4669L12.1059 0.141795L26.9399 0.019043L22.7475 15.4574H37.2605L41.4624 0.0662552L56.2776 0.019043Z" fill="white"/>
<path opacity="0.8" d="M2.04966 38.4971L0.0195312 47.6468H14.6175L17.9318 32.6427C18.3756 30.9242 19.6126 29.6589 21.1045 29.3001C21.1045 29.3001 8.13059 28.5447 2.34237 37.77C2.20074 37.9872 2.10631 38.2421 2.04966 38.5065V38.4971Z" fill="url(#paint0_linear_275_22624)"/>
<path opacity="0.8" d="M35.1445 15.4573C35.4372 15.4573 35.8905 15.4762 36.4476 15.4573C36.627 15.4573 36.8158 15.4573 37.0141 15.4384C37.0991 15.4384 37.1747 15.4384 37.2596 15.429C41.386 15.2401 49.5348 14.107 53.8595 8.4321C54.0011 8.24325 54.105 8.03552 54.1616 7.8089L54.7565 5.6277L56.2862 0L41.4804 0.0377698V0.0755395L41.1971 1.02923L37.2691 15.4384V15.4667L37.0236 15.4478L35.1445 15.4667V15.4573Z" fill="url(#paint1_linear_275_22624)"/>
<path d="M53.9163 48.0713C53.1231 47.8447 52.4055 47.4858 51.7729 47.0137C51.1402 46.5416 50.6209 45.9184 50.2337 45.1536C49.8466 44.3887 49.6766 43.4728 49.7333 42.4058C49.7616 41.8298 49.8466 41.301 49.9882 40.81L53.8974 25.1261H63.7081L60.2427 38.9971C60.205 39.1104 60.1955 39.2898 60.1955 39.5164C60.1955 39.743 60.2616 39.9791 60.3938 40.2057C60.526 40.4323 60.7337 40.6401 61.0076 40.81C61.2908 40.98 61.6969 41.065 62.2445 41.065C62.6222 41.065 63.0377 41.0178 63.5004 40.9328C63.9631 40.8478 64.5296 40.7345 65.2 40.5834L69.0525 25.1167H78.8632L73.245 47.7974H64.303L64.6901 46.2017C63.9253 46.4849 63.2077 46.7588 62.5278 47.0232C61.8479 47.2781 61.187 47.5142 60.526 47.7125C59.865 47.9108 59.1852 48.0807 58.4864 48.2129C57.7877 48.3451 57.0323 48.4112 56.2297 48.4112C55.4837 48.4112 54.7095 48.2979 53.9163 48.0618V48.0713Z" fill="white"/>
<path d="M85.9083 25.0603C87.0603 24.9848 88.2784 24.9281 89.5437 24.8903C90.809 24.8431 92.112 24.8148 93.434 24.7865C94.7654 24.7581 96.0684 24.7393 97.3715 24.7393C100.601 24.7393 103.056 25.4569 104.755 26.8827C106.455 28.3085 107.22 30.5086 107.059 33.4735C107.031 33.9929 106.984 34.5311 106.908 35.0976C106.833 35.6642 106.71 36.2402 106.531 36.8445C105.983 39.0918 105.133 40.9614 103.981 42.4627C102.829 43.9641 101.488 45.1444 99.9493 46.032C98.4007 46.9101 96.7105 47.5333 94.8787 47.8921C93.0468 48.2509 91.1583 48.4303 89.2321 48.4303H86.8526L84.6525 57.3346H74.8418L82.7735 25.3152C83.6988 25.2303 84.7375 25.1453 85.8989 25.0792L85.9083 25.0603ZM92.3009 41.6979C92.9524 41.5657 93.5567 41.3202 94.1138 40.9425C94.6709 40.5648 95.1525 40.0643 95.5774 39.4317C96.0023 38.7991 96.3422 37.9587 96.5972 36.9294C96.8144 36.1268 96.9371 35.3903 96.9749 34.7294C97.041 33.4357 96.7483 32.5293 96.0779 32.0288C95.4169 31.5284 94.3782 31.2734 92.9618 31.2734C92.7069 31.2734 92.4047 31.2734 92.0743 31.2923C91.7438 31.3112 91.4133 31.3301 91.1017 31.3584L88.4672 41.9056H90.2424C90.9601 41.9056 91.6494 41.8395 92.3009 41.7073V41.6979Z" fill="white"/>
<path d="M111.467 48.0713C110.674 47.8447 109.956 47.4858 109.324 47.0137C108.691 46.5416 108.172 45.9184 107.785 45.1536C107.397 44.3887 107.227 43.4728 107.284 42.4058C107.312 41.8298 107.397 41.301 107.539 40.81L111.448 25.1261H121.259L117.794 38.9971C117.756 39.1104 117.746 39.2898 117.746 39.5164C117.746 39.743 117.812 39.9791 117.945 40.2057C118.077 40.4323 118.285 40.6401 118.558 40.81C118.842 40.98 119.248 41.065 119.795 41.065C120.173 41.065 120.588 41.0178 121.051 40.9328C121.514 40.8478 122.08 40.7345 122.751 40.5834L126.603 25.1167H136.414L130.796 47.7974H121.854L122.241 46.2017C121.476 46.4849 120.758 46.7588 120.079 47.0232C119.399 47.2781 118.738 47.5142 118.077 47.7125C117.416 47.9108 116.736 48.0807 116.037 48.2129C115.338 48.3451 114.583 48.4112 113.78 48.4112C113.035 48.4112 112.26 48.2979 111.467 48.0618V48.0713Z" fill="white"/>
<path d="M149.852 25.1261L149.418 26.8068C150.362 26.4291 151.221 26.1175 151.996 25.8531C152.77 25.5888 153.506 25.381 154.186 25.2016C154.866 25.0222 155.537 24.9089 156.169 24.8334C156.811 24.7578 157.472 24.7295 158.162 24.7295C158.908 24.7295 159.663 24.8334 160.409 25.0505C161.164 25.2677 161.825 25.6076 162.411 26.0703C162.996 26.533 163.449 27.1184 163.789 27.8455C164.129 28.5631 164.261 29.4413 164.214 30.4799C164.186 31.0843 164.091 31.6791 163.95 32.2551L160.135 47.8068H150.372L153.686 34.2852C153.828 33.7093 153.743 33.2088 153.422 32.7933C153.1 32.3779 152.543 32.1701 151.769 32.1701C151.221 32.1701 150.674 32.1985 150.126 32.2551C149.578 32.3118 149.144 32.3684 148.823 32.4251L145.018 47.8068H135.207L140.825 25.1261H149.852Z" fill="white"/>
<path d="M181.409 48.2223C179.237 48.4112 176.886 48.5056 174.356 48.5056C173.26 48.5056 172.099 48.4678 170.881 48.4017C169.663 48.3262 168.548 48.0996 167.548 47.7124C166.547 47.3253 165.725 46.7399 165.093 45.9656C164.46 45.1913 164.177 44.0771 164.252 42.6419C164.271 42.3208 164.309 42.0092 164.365 41.6882C164.422 41.3671 164.498 41.0272 164.573 40.6495C165.017 38.8932 165.744 37.5241 166.783 36.542C167.812 35.56 169.03 34.8235 170.418 34.3419C171.816 33.8509 173.326 33.5488 174.96 33.4355C176.593 33.3222 178.218 33.2655 179.832 33.2655H181.513C181.579 33.0955 181.636 32.9256 181.673 32.7651C181.711 32.6045 181.73 32.444 181.74 32.2646C181.749 32.0663 181.711 31.868 181.617 31.6792C181.522 31.4903 181.343 31.3298 181.06 31.1787C180.776 31.0371 180.38 30.9143 179.87 30.8105C179.36 30.7066 178.68 30.6594 177.849 30.6594C177.16 30.6594 176.405 30.6877 175.574 30.7444C174.752 30.801 173.931 30.8766 173.119 30.9616C172.307 31.0465 171.542 31.141 170.815 31.2448C170.088 31.3487 169.493 31.4431 169.03 31.5281L170.465 25.6549C171.948 25.4283 173.685 25.1828 175.687 24.9184C177.689 24.6634 179.672 24.5312 181.626 24.5312C183.128 24.5312 184.516 24.5879 185.809 24.7012C187.103 24.8145 188.217 25.0789 189.161 25.4755C190.106 25.8815 190.833 26.467 191.333 27.2507C191.843 28.025 192.06 29.0636 191.985 30.3572C191.947 31.0749 191.815 31.868 191.597 32.7367L187.905 47.6841C185.734 47.8541 183.562 48.0335 181.4 48.2223H181.409ZM178.218 42.8213C178.661 42.8024 179.03 42.7741 179.322 42.7174L180.314 38.7421H177.717C177.368 38.7421 177.018 38.7799 176.65 38.846C176.282 38.9215 175.942 39.0443 175.611 39.2331C175.281 39.422 175.017 39.6675 174.79 39.9885C174.573 40.3096 174.45 40.6967 174.422 41.1594C174.393 41.7637 174.62 42.1981 175.111 42.453C175.602 42.708 176.206 42.8401 176.924 42.8401C177.33 42.8401 177.755 42.8401 178.199 42.8213H178.218Z" fill="white"/>
<defs>
<linearGradient id="paint0_linear_275_22624" x1="11.3599" y1="34.3424" x2="8.83878" y2="47.4013" gradientUnits="userSpaceOnUse">
<stop stop-color="#003CD3" stop-opacity="0.3"/>
<stop offset="1" stop-color="#023ED5" stop-opacity="0"/>
</linearGradient>
<linearGradient id="paint1_linear_275_22624" x1="45.5029" y1="15.3251" x2="46.3433" y2="-15.4478" gradientUnits="userSpaceOnUse">
<stop stop-color="#003CD3" stop-opacity="0.3"/>
<stop offset="1" stop-color="#023ED5" stop-opacity="0"/>
</linearGradient>
</defs>
</svg>
