<svg width="46" height="47" viewBox="0 0 46 47" fill="none" xmlns="http://www.w3.org/2000/svg">
<rect y="0.0742188" width="46" height="46" rx="12" fill="white"/>
<path d="M33.0014 27.9943V30.9943C33.0025 31.2728 32.9455 31.5485 32.8339 31.8037C32.7223 32.0588 32.5587 32.2879 32.3535 32.4762C32.1483 32.6645 31.906 32.8078 31.6421 32.897C31.3783 32.9862 31.0988 33.0194 30.8214 32.9943C27.7442 32.66 24.7884 31.6085 22.1914 29.9243C19.7752 28.389 17.7267 26.3405 16.1914 23.9243C14.5014 21.3155 13.4496 18.3453 13.1214 15.2543C13.0964 14.9778 13.1293 14.6991 13.2179 14.4359C13.3065 14.1728 13.449 13.931 13.6362 13.7259C13.8234 13.5209 14.0512 13.357 14.3052 13.2448C14.5592 13.1327 14.8337 13.0746 15.1114 13.0743H18.1114C18.5967 13.0695 19.0672 13.2414 19.4352 13.5578C19.8031 13.8743 20.0435 14.3138 20.1114 14.7943C20.238 15.7544 20.4728 16.697 20.8114 17.6043C20.9459 17.9622 20.9751 18.3512 20.8953 18.7252C20.8155 19.0992 20.6303 19.4424 20.3614 19.7143L19.0914 20.9843C20.515 23.4879 22.5879 25.5608 25.0914 26.9843L26.3614 25.7143C26.6333 25.4455 26.9766 25.2602 27.3505 25.1804C27.7245 25.1007 28.1135 25.1298 28.4714 25.2643C29.3787 25.6029 30.3213 25.8377 31.2814 25.9643C31.7672 26.0328 32.2108 26.2775 32.5279 26.6518C32.8451 27.0261 33.0136 27.5039 33.0014 27.9943Z" stroke="#3165FF" stroke-width="2" stroke-linecap="round" stroke-linejoin="round"/>
</svg>
