<svg width="46" height="47" viewBox="0 0 46 47" fill="none" xmlns="http://www.w3.org/2000/svg">
<rect x="0.125" y="0.199219" width="45.75" height="45.75" rx="11.875" fill="white"/>
<rect x="0.125" y="0.199219" width="45.75" height="45.75" rx="11.875" stroke="#C40027" stroke-width="0.25"/>
<path d="M23.0154 7.07659C14.1709 7.07659 7 14.2324 7 23.0612C7 29.836 11.2172 35.6265 17.1744 37.9549C17.0298 36.6913 16.9112 34.7438 17.2265 33.3642C17.5157 32.1148 19.0992 25.4181 19.0992 25.4181C19.0992 25.4181 18.6251 24.4573 18.6251 23.0494C18.6251 20.825 19.9171 19.1686 21.5243 19.1686C22.8945 19.1686 23.5535 20.1956 23.5535 21.419C23.5535 22.7867 22.6835 24.8407 22.2212 26.748C21.8396 28.3405 23.0249 29.642 24.5942 29.642C27.4412 29.642 29.6292 26.6415 29.6292 22.3276C29.6292 18.4989 26.8746 15.8273 22.9324 15.8273C18.3715 15.8273 15.6975 19.2348 15.6975 22.7607C15.6975 24.1284 16.2238 25.6027 16.8828 26.4048C17.0155 26.5634 17.0274 26.7077 16.9871 26.8663C16.8686 27.3656 16.5912 28.4588 16.5391 28.6813C16.4727 28.9699 16.302 29.0362 15.9986 28.8919C13.9955 27.9572 12.7438 25.0489 12.7438 22.6944C12.7438 17.6541 16.4087 13.0232 23.3283 13.0232C28.8777 13.0232 33.2016 16.9703 33.2016 22.259C33.2016 27.5478 29.7216 32.2047 24.8976 32.2047C23.2761 32.2047 21.7471 31.3623 21.2327 30.3637C21.2327 30.3637 20.4291 33.4163 20.23 34.1664C19.8744 35.5602 18.8977 37.2971 18.2387 38.3643C19.7417 38.8258 21.3228 39.0742 22.9846 39.0742C31.829 39.0742 38.9999 31.916 38.9999 23.0872C39.026 14.2324 31.8551 7.07422 23.013 7.07422L23.0154 7.07659Z" fill="#C40027"/>
</svg>
