<svg width="46" height="47" viewBox="0 0 46 47" fill="none" xmlns="http://www.w3.org/2000/svg">
<rect y="0.0742188" width="46" height="46" rx="12" fill="white"/>
<path d="M18.3592 33.0742C27.7954 33.0742 32.9557 25.3813 32.9557 18.708C32.9557 18.4883 32.9499 18.2714 32.9413 18.0545C33.943 17.3418 34.8131 16.4517 35.5 15.4404C34.5813 15.8432 33.591 16.1137 32.555 16.2348C33.6139 15.6094 34.4267 14.6207 34.8103 13.4432C33.82 14.0207 32.721 14.4432 31.5532 14.6686C30.6173 13.6883 29.2836 13.0742 27.8097 13.0742C24.9762 13.0742 22.678 15.3362 22.678 18.1221C22.678 18.5193 22.7238 18.9024 22.8125 19.2742C18.5481 19.063 14.7673 17.0545 12.2401 13.9982C11.7994 14.7446 11.5447 15.6122 11.5447 16.5362C11.5447 18.2883 12.4491 19.8348 13.8286 20.739C12.9871 20.7137 12.1972 20.4855 11.5046 20.108C11.5046 20.1277 11.5046 20.1503 11.5046 20.1728C11.5046 22.6179 13.2733 24.6601 15.6202 25.1221C15.188 25.2376 14.7358 25.2996 14.2693 25.2996C13.9402 25.2996 13.6168 25.2686 13.3048 25.2094C13.9574 27.2151 15.852 28.6742 18.0959 28.7165C16.3386 30.0714 14.1291 30.877 11.725 30.877C11.31 30.877 10.9035 30.8545 10.5 30.8066C12.7696 32.2376 15.4657 33.0742 18.3621 33.0742" fill="#3165FF"/>
</svg>
