<svg width="46" height="47" viewBox="0 0 46 47" fill="none" xmlns="http://www.w3.org/2000/svg">
<rect y="0.0742188" width="46" height="46" rx="12" fill="white"/>
<path d="M34.0196 17.5733C33.7563 16.5904 32.9769 15.8158 31.9853 15.5517C30.1913 15.0742 23 15.0742 23 15.0742C23 15.0742 15.8087 15.0742 14.0147 15.5517C13.0257 15.8158 12.2462 16.5879 11.9804 17.5733C11.5 19.3561 11.5 23.0742 11.5 23.0742C11.5 23.0742 11.5 26.7923 11.9804 28.5752C12.2437 29.558 13.0231 30.3326 14.0147 30.5968C15.8087 31.0742 23 31.0742 23 31.0742C23 31.0742 30.1913 31.0742 31.9853 30.5968C32.9743 30.3326 33.7538 29.5606 34.0196 28.5752C34.5 26.7923 34.5 23.0742 34.5 23.0742C34.5 23.0742 34.5 19.3561 34.0196 17.5733ZM20.7 26.5028V19.6456L26.6749 23.0742L20.7 26.5028Z" fill="#FF3535"/>
</svg>
