<svg width="24" height="30" viewBox="0 0 24 30" fill="none" xmlns="http://www.w3.org/2000/svg">
<path d="M21.6737 6.02592C21.2705 6.63067 20.8529 7.22102 20.421 7.79698C19.989 8.37293 19.5714 8.94888 19.1683 9.52484C17.354 12.1166 15.5398 14.694 13.7255 17.257C11.94 19.82 10.1546 22.4118 8.36913 25.0324C8.80109 25.0324 9.13227 25.0324 9.36265 25.0324C9.59303 25.0324 9.78022 25.0324 9.9242 25.0324C10.097 25.0324 10.2842 25.0324 10.4858 25.0324C10.6873 25.0324 10.9897 25.0468 11.3929 25.0756C11.7961 25.0756 12.3432 25.0756 13.0344 25.0756C13.7543 25.0756 14.7046 25.0756 15.8853 25.0756C16.6341 25.0756 17.3684 25.0756 18.0884 25.0756C18.8371 25.0756 19.5858 25.1044 20.3346 25.162C20.4786 25.1908 20.6369 25.2196 20.8097 25.2484C20.9825 25.2484 21.1409 25.2772 21.2849 25.3348L21.5441 25.4644C21.5441 25.4644 21.6305 25.4932 21.8033 25.5508C22.1488 25.7523 22.4368 25.9827 22.6672 26.2419C23.0704 26.8179 23.1855 27.4658 23.0128 28.1857C22.984 28.3873 22.912 28.5745 22.7968 28.7473C22.7104 28.8913 22.6096 29.0209 22.4944 29.1361C22.264 29.3665 21.9904 29.5248 21.6737 29.6112C21.3569 29.784 21.0257 29.8848 20.6801 29.9136C20.5362 29.9424 20.3922 29.9712 20.2482 30C20.133 30 20.0034 30 19.8594 30H4.17906C4.00628 30 3.83349 30 3.6607 30C3.48792 30 3.31513 29.9856 3.14235 29.9568C3.05595 29.928 2.96956 29.9136 2.88317 29.9136C2.82557 29.9136 2.76798 29.8992 2.71038 29.8704C2.59519 29.8416 2.48 29.8272 2.36481 29.8272C2.27842 29.7984 2.16322 29.7696 2.01924 29.7408C1.70246 29.568 1.45768 29.4096 1.28489 29.2657C0.939322 29.0065 0.752137 28.7329 0.72334 28.4449V28.4017C0.665744 28.2577 0.622548 28.1281 0.59375 28.013C0.59375 27.8978 0.608149 27.7538 0.636946 27.581C0.636946 27.5522 0.622548 27.5378 0.59375 27.5378C0.59375 27.509 0.59375 27.4658 0.59375 27.4082C0.59375 27.2354 0.622548 27.077 0.680143 26.933C0.737739 26.7603 0.795334 26.5875 0.852929 26.4147C0.910525 26.3283 0.953721 26.2419 0.982519 26.1555C1.04011 26.0403 1.11211 25.9395 1.1985 25.8531C1.2561 25.7091 1.32809 25.5652 1.41448 25.4212C1.52968 25.2772 1.61607 25.1332 1.67366 24.9892C1.73126 24.874 1.78885 24.7588 1.84645 24.6436C1.93284 24.4996 2.00484 24.3845 2.06243 24.2981C2.17762 24.1829 2.26402 24.0821 2.32161 23.9957C2.408 23.8805 2.48 23.7653 2.53759 23.6501L4.78381 20.4968L8.80109 14.6652C9.43464 13.8301 10.0538 12.9662 10.6585 12.0734C11.2921 11.1519 11.94 10.2016 12.6024 9.22246C13.0919 8.47372 13.5383 7.82578 13.9415 7.27862C14.3447 6.70266 14.7766 6.08351 15.2374 5.42117C14.2295 5.42117 13.2791 5.42117 12.3864 5.42117C11.5225 5.42117 10.6585 5.42117 9.79461 5.42117C8.93068 5.39237 8.02356 5.37797 7.07323 5.37797C6.15171 5.34917 5.12939 5.32038 4.00628 5.29158C3.60311 5.26278 3.12795 5.20518 2.58079 5.11879C2.06243 5.0036 1.63047 4.78762 1.28489 4.47084C0.96812 4.18287 0.780935 3.88049 0.72334 3.56371C0.636947 3.27574 0.59375 2.93017 0.59375 2.527C0.59375 2.06623 0.72334 1.66307 0.982519 1.3175C1.2705 0.943125 1.63047 0.669547 2.06243 0.496762C2.66718 0.26638 3.25754 0.151189 3.83349 0.151189C4.15027 0.122391 4.46704 0.107993 4.78381 0.107993C5.10059 0.107993 5.40297 0.0791944 5.69094 0.021598H5.90692C6.74206 -0.00719933 7.98036 -0.00719933 9.62183 0.021598C11.2921 0.021598 13.3799 0.021598 15.8853 0.021598C16.2021 0.021598 16.5333 0.021598 16.8788 0.021598C17.2244 -0.00719933 17.5556 -0.00719933 17.8724 0.021598C18.5347 0.0791944 19.2259 0.093593 19.9458 0.064794C20.6945 0.0359967 21.3713 0.194385 21.976 0.539958C22.1488 0.62635 22.3072 0.727141 22.4512 0.842332C22.5952 0.957523 22.7536 1.05832 22.9264 1.14471C23.2719 1.46148 23.4303 1.83585 23.4015 2.26782C23.4015 2.69979 23.3007 3.14615 23.0992 3.60691C22.9264 4.06768 22.696 4.51404 22.408 4.946C22.12 5.37797 21.8752 5.73794 21.6737 6.02592Z" fill="white"/>
</svg>
