<svg width="46" height="47" viewBox="0 0 46 47" fill="none" xmlns="http://www.w3.org/2000/svg">
<rect y="0.0742188" width="46" height="46" rx="12" fill="white"/>
<path d="M16.3643 24.7559V26.0742H11.2178V24.7559H16.3643ZM16.3301 19.8438L12.0674 26.0742H10.8271V25.1709L15.1387 18.9648H16.3301V19.8438ZM15.7783 18.9648V20.2881H10.8027V18.9648H15.7783ZM20.2266 20.459L18.4932 26.0742H16.6523L19.2646 18.9648H20.4316L20.2266 20.459ZM21.6621 26.0742L19.9238 20.459L19.6992 18.9648H20.8809L23.5078 26.0742H21.6621ZM21.5938 23.4229V24.7461H17.9463V23.4229H21.5938ZM28.7275 24.7559V26.0742H25.1338V24.7559H28.7275ZM25.7441 18.9648V26.0742H24.0303V18.9648H25.7441ZM35.1533 22.3779V22.666C35.1533 23.2096 35.0768 23.6979 34.9238 24.1309C34.7741 24.5605 34.5609 24.9284 34.2842 25.2344C34.0075 25.5371 33.6803 25.7699 33.3027 25.9326C32.9251 26.0921 32.5085 26.1719 32.0527 26.1719C31.5938 26.1719 31.1738 26.0921 30.793 25.9326C30.4154 25.7699 30.0866 25.5371 29.8066 25.2344C29.5299 24.9284 29.3151 24.5605 29.1621 24.1309C29.0124 23.6979 28.9375 23.2096 28.9375 22.666V22.3779C28.9375 21.8343 29.0124 21.346 29.1621 20.9131C29.3151 20.4801 29.5283 20.1123 29.8018 19.8096C30.0785 19.5036 30.4056 19.2708 30.7832 19.1113C31.1641 18.9486 31.584 18.8672 32.043 18.8672C32.4987 18.8672 32.9154 18.9486 33.293 19.1113C33.6738 19.2708 34.0026 19.5036 34.2793 19.8096C34.556 20.1123 34.7708 20.4801 34.9238 20.9131C35.0768 21.346 35.1533 21.8343 35.1533 22.3779ZM33.415 22.666V22.3682C33.415 22.0166 33.3841 21.7074 33.3223 21.4404C33.2637 21.1702 33.1758 20.944 33.0586 20.7617C32.9414 20.5794 32.7965 20.4427 32.624 20.3516C32.4548 20.2572 32.2611 20.21 32.043 20.21C31.8151 20.21 31.6165 20.2572 31.4473 20.3516C31.278 20.4427 31.1364 20.5794 31.0225 20.7617C30.9085 20.944 30.8223 21.1702 30.7637 21.4404C30.7083 21.7074 30.6807 22.0166 30.6807 22.3682V22.666C30.6807 23.0143 30.7083 23.3236 30.7637 23.5938C30.8223 23.8607 30.9085 24.0869 31.0225 24.2725C31.1396 24.458 31.2829 24.598 31.4521 24.6924C31.6247 24.7868 31.8249 24.834 32.0527 24.834C32.2708 24.834 32.4645 24.7868 32.6338 24.6924C32.8031 24.598 32.9447 24.458 33.0586 24.2725C33.1758 24.0869 33.2637 23.8607 33.3223 23.5938C33.3841 23.3236 33.415 23.0143 33.415 22.666Z" fill="#3165FF"/>
</svg>
